<?xml version="1.0" encoding="utf-8"?>
<!-- Generator: Adobe Illustrator 26.0.0, SVG Export Plug-In . SVG Version: 6.00 Build 0)  -->
<svg version="1.1" id="Слой_1" xmlns="http://www.w3.org/2000/svg" xmlns:xlink="http://www.w3.org/1999/xlink" x="0px" y="0px"
	 viewBox="0 0 640 512" style="enable-background:new 0 0 640 512;" xml:space="preserve">
<style type="text/css">
	.st0{fill:#FFFFFF;}
</style>
<path class="st0" d="M150.7,92.8C195,58.3,251.8,32,320,32c80.8,0,145.5,36.8,192.6,80.6c46.8,43.4,78.1,94.5,92.9,131.1
	c3.3,7.9,3.3,16.7,0,24.6c-13.4,32.3-40.3,77.8-79.9,118.4l105.2,82.4c10.4,8.2,12.3,23.3,4.1,33.7c-8.2,10.4-23.3,12.3-33.7,4.1
	l-592-464C-1.2,34.7-3.1,19.6,5.1,9.2C13.3-1.2,28.4-3.1,38.8,5.1L150.7,92.8z M223.1,149.5l90.3,70.8c4.2-8.5,6.6-18.1,6.6-29.2
	c0-10.6-3.9-21.4-8.4-30.7c2.8-0.3,5.6-1.3,8.4-1.3c53,0,96,43,96,96c0,14.6-2.9,27.6-8.9,39.4l39.5,30.2
	c11.1-20.4,17.4-43.8,17.4-69.6c0-78.6-64.5-144-144-144C282.7,111.1,248.6,126.2,223.1,149.5z M320,480
	c-80.8,0-145.5-36.8-192.6-80.6C80.6,355.1,49.3,304,34.5,268.3c-3.3-7.9-3.3-16.7,0-24.6c9.5-22.9,25.8-52.5,48.6-82.2l94.3,74.3
	c-0.9,6.6-1.4,13.3-1.4,19.3c0,80.4,64.5,144.9,144,144.9c18.7,0,36.6-3.6,53-10.1l73.2,57.6C409.9,467.1,367.8,480,320,480L320,480
	z"/>
</svg>
