<?xml version="1.0" encoding="utf-8"?>
<!-- Generator: Adobe Illustrator 26.0.0, SVG Export Plug-In . SVG Version: 6.00 Build 0)  -->
<svg version="1.1" id="Слой_1" xmlns="http://www.w3.org/2000/svg" xmlns:xlink="http://www.w3.org/1999/xlink" x="0px" y="0px"
	 viewBox="0 0 640 512" style="enable-background:new 0 0 640 512;" xml:space="preserve">
<style type="text/css">
	.st0{fill:#FFFFFF;}
</style>
<path class="st0" d="M311.7,160.9c2.8-0.3,5.6-0.4,8.4-0.4c53,0,96,42.1,96,96c0,53-43,96-96,96c-53.9,0-96-43-96-96
	c0-2.8,0.1-5.6,0.4-8.4c9.3,4.5,20.1,8.4,31.6,8.4c35.3,0,64-28.7,64-64C320.1,181,316.2,170.2,311.7,160.9z M512.7,113.1
	c46.8,43.4,78.1,94.5,92.9,131.1c3.3,7.9,3.3,16.7,0,24.6c-14.8,35.7-46.1,86.8-92.9,131.1c-47.1,43.8-111.8,80.6-192.6,80.6
	s-145.5-36.8-192.6-80.6c-46.8-44.3-78.1-95.4-93-131.1c-3.3-7.9-3.3-16.7,0-24.6c14.9-36.6,46.2-87.7,93-131.1
	c47.1-43.8,111.8-80.6,192.6-80.6S465.6,69.3,512.7,113.1L512.7,113.1z M320.1,112.5c-79.5,0-144,64.5-144,144s64.5,144,144,144
	s144-64.5,144-144S399.6,112.5,320.1,112.5z"/>
</svg>
